<svg width="40" height="40" viewBox="0 0 40 40" fill="none" xmlns="http://www.w3.org/2000/svg">
<circle cx="20" cy="20" r="20" fill="#E10050"/>
<path d="M26 29C26.5523 29 27 28.5523 27 28V18C27 17.4477 26.5523 17 26 17H14C13.4477 17 13 17.4477 13 18V28C13 28.5523 13.4477 29 14 29H26Z" stroke="white" stroke-width="2" stroke-linejoin="round"/>
<path d="M16 16C16 16.5523 16.4477 17 17 17H23C23.5523 17 24 16.5523 24 16V14H23.0014C24 14 24 13.9995 24 13.999L24 13.9979L24 13.9955L24 13.9899L23.9998 13.9753C23.9996 13.964 23.9993 13.9499 23.9987 13.933C23.9976 13.8992 23.9955 13.8543 23.9916 13.7998C23.9838 13.6912 23.9688 13.5426 23.9395 13.3668C23.8817 13.0201 23.7643 12.5425 23.5194 12.0528C23.2726 11.5592 22.8867 11.0351 22.2891 10.6367C21.6852 10.2341 20.925 10 20 10C19.075 10 18.3148 10.2341 17.7109 10.6367C17.1133 11.0351 16.7273 11.5592 16.4805 12.0528C16.2357 12.5425 16.1183 13.0201 16.0605 13.3669C16.0312 13.5426 16.0162 13.6913 16.0084 13.7999C16.0045 13.8543 16.0024 13.8993 16.0013 13.933C16.0007 13.9499 16.0004 13.9641 16.0002 13.9753L16 13.9899L16 13.9955L16 13.9979L16 13.999C16 13.9995 16 14 16.8703 14H16V16Z" stroke="white" stroke-width="2" stroke-linejoin="round"/>
<circle cx="20" cy="23" r="2" fill="white"/>
</svg>
